<svg xmlns="http://www.w3.org/2000/svg" viewBox="0 0 24 24" width="24" height="24">
  <path fill="#fff" d="M12 0C5.4 0 0 5.4 0 12c0 5.3 3.4 9.8 8.2 11.4.6.1.8-.2.8-.5v-2c-3.3.7-4-1.6-4-1.6-.5-1.2-1.2-1.5-1.2-1.5-1-.7.1-.7.1-.7 1.2.1 1.9 1.2 1.9 1.2 1 .1 1.5 1 1.5 1 1 .1 1.6.5 1.9.7.1-.8.3-1.5.5-1.8-2.7-.3-5.5-1.4-5.5-6.2 0-1.2.4-2.1 1.1-2.8-.1-.3-.5-1.4.1-3 0 0 1-.3 3.3 1 .9-.3 1.8-.4 2.7-.4s1.8.1 2.7.4c2.2-1.3 3.3-1 3.3-1 .6 1.6.2 2.7.1 3 .7.7 1.1 1.6 1.1 2.8 0 4.8-2.8 5.9-5.5 6.2.3.2.5.7.5 1.5v2.2c0 .3.2.6.8.5C20.6 21.8 24 17.3 24 12 24 5.4 18.6 0 12 0z"/>
</svg>
